<?xml version="1.0" encoding="UTF-8" standalone="no"?>
<!-- Created with Inkscape (http://www.inkscape.org/) -->

<svg
   viewBox="0 0 183.96759 27"
   version="1.1"
   xmlns="http://www.w3.org/2000/svg"
   xmlns:svg="http://www.w3.org/2000/svg">
  <defs
     id="defs7861" />
  <g
     id="layer1">
    <rect
       fill="#000000"
       id="rect8499"
       width="190.25929"
       height="27"
       x="0"
       y="0" />
    <path
       fill="#ffffff"
       d="m 33.137217,10.131116 q 0.766287,0 1.325037,0.271393 0.558751,0.271393 0.92593,0.734358 0.367178,0.462965 0.542786,1.085572 0.175607,0.622608 0.175607,1.341002 0,1.101536 -0.415072,2.091323 -0.399107,0.973822 -1.101536,1.70818 -0.70243,0.718393 -1.660288,1.14943 -0.957858,0.415071 -2.075359,0.415071 -0.143678,0 -0.510857,-0.01596 -0.351215,0 -0.81418,-0.06386 -0.462964,-0.06386 -0.989786,-0.191572 -0.510858,-0.127714 -0.973823,-0.351214 L 30.3275,6.6987914 32.801967,6.3156482 31.81218,10.434438 q 0.319286,-0.143679 0.638572,-0.223501 0.319286,-0.07982 0.686465,-0.07982 z m -2.075359,6.83272 q 0.558751,0 1.053644,-0.271393 0.494893,-0.271393 0.846108,-0.718393 0.367179,-0.462965 0.574715,-1.03768 0.207536,-0.574714 0.207536,-1.197322 0,-0.766287 -0.255429,-1.197323 -0.255429,-0.431036 -0.941894,-0.431036 -0.2235,0 -0.590679,0.07982 -0.351215,0.07982 -0.638572,0.33525 l -1.053644,4.374218 q 0.09579,0.01597 0.159643,0.03193 0.07982,0.01596 0.159643,0.03193 0.07982,0 0.191572,0 0.11175,0 0.287357,-1e-6 z m 8.045989,1.740109 H 36.74513 l 1.995538,-8.397222 h 2.378681 z m 1.149429,-9.4189369 q -0.494893,0 -0.894,-0.2873574 -0.399108,-0.3033217 -0.399108,-0.9099651 0,-0.3352503 0.127714,-0.6226077 0.143679,-0.3033218 0.367179,-0.5108577 0.223501,-0.2235002 0.510858,-0.3512146 0.303322,-0.1277144 0.638572,-0.1277144 0.494893,0 0.894001,0.3033217 0.399107,0.2873574 0.399107,0.8940009 0,0.3352503 -0.143678,0.638572 -0.127715,0.2873574 -0.351215,0.5108576 -0.2235,0.2075359 -0.526822,0.3352503 -0.287357,0.1277144 -0.622608,0.1277144 z M 43.545907,8.2154 46.020373,7.8322568 45.41373,10.306723 h 2.650074 l -0.478929,1.947645 h -2.63411 l -0.702429,2.937431 q -0.09579,0.367179 -0.127715,0.686465 -0.01596,0.319286 0.07982,0.558751 0.11175,0.2235 0.367179,0.351214 0.255429,0.127715 0.702429,0.127715 0.383143,0 0.734358,-0.06386 0.367179,-0.07982 0.734358,-0.207536 l 0.175607,1.819931 q -0.478929,0.175607 -1.03768,0.303321 -0.55875,0.127715 -1.325036,0.127715 -1.101537,0 -1.708181,-0.319286 -0.606643,-0.335251 -0.862072,-0.894001 -0.255429,-0.574715 -0.2235,-1.309073 0.03193,-0.734357 0.2235,-1.548537 z m 4.597673,7.136042 q 0,-1.085572 0.351214,-2.04343 0.351215,-0.957858 1.005751,-1.676252 0.654536,-0.718393 1.580466,-1.133465 0.941894,-0.415072 2.091323,-0.415072 0.718394,0 1.277144,0.143679 0.574715,0.127714 1.03768,0.351214 l -0.81418,1.851859 q -0.319286,-0.127714 -0.6705,-0.2235 -0.33525,-0.11175 -0.830144,-0.11175 -1.197322,0 -1.883787,0.814179 -0.686465,0.798215 -0.686465,2.187109 0,0.81418 0.351215,1.325037 0.351214,0.494894 1.293108,0.494894 0.462965,0 0.894001,-0.09579 0.431036,-0.09579 0.766286,-0.239465 l 0.175607,1.899752 q -0.447,0.175607 -0.989786,0.303322 -0.526822,0.143678 -1.293109,0.143678 -0.989786,0 -1.676251,-0.287357 -0.686465,-0.287357 -1.133465,-0.766286 -0.447001,-0.494894 -0.654537,-1.14943 -0.191571,-0.654536 -0.191571,-1.37293 z m 10.584299,3.576003 q -0.846108,0 -1.468715,-0.255428 -0.622608,-0.255429 -1.03768,-0.718394 -0.399107,-0.462965 -0.606643,-1.085572 -0.207536,-0.638572 -0.207536,-1.404859 0,-0.957858 0.303322,-1.915716 0.319286,-0.957858 0.925929,-1.724144 0.606643,-0.766287 1.48468,-1.245216 0.878036,-0.494893 2.011502,-0.494893 0.830143,0 1.452751,0.255429 0.638572,0.255429 1.03768,0.718393 0.415071,0.462965 0.622607,1.101537 0.207536,0.622608 0.207536,1.388894 0,0.957858 -0.303321,1.915716 -0.303322,0.957858 -0.894001,1.724145 -0.590679,0.766286 -1.48468,1.261179 -0.878037,0.478929 -2.043431,0.478929 z m 1.181359,-6.83272 q -0.526822,0 -0.92593,0.303322 -0.399107,0.303321 -0.6705,0.766286 -0.271394,0.462965 -0.415072,1.021715 -0.127715,0.542786 -0.127715,1.03768 0,0.814179 0.255429,1.261179 0.255429,0.431037 0.92593,0.431037 0.526821,0 0.925929,-0.303322 0.399108,-0.303322 0.670501,-0.766287 0.271393,-0.462964 0.399107,-1.00575 0.143679,-0.558751 0.143679,-1.053644 0,-0.81418 -0.255429,-1.245216 -0.255429,-0.447 -0.925929,-0.447 z m 6.545354,6.60922 h -2.362716 l 1.995537,-8.397222 h 2.378681 z m 1.14943,-9.4189369 q -0.494893,0 -0.894001,-0.2873574 -0.399107,-0.3033217 -0.399107,-0.9099651 0,-0.3352503 0.127714,-0.6226077 0.143679,-0.3033218 0.367179,-0.5108577 0.2235,-0.2235002 0.510857,-0.3512146 0.303322,-0.1277144 0.638572,-0.1277144 0.494894,0 0.894001,0.3033217 0.399108,0.2873574 0.399108,0.8940009 0,0.3352503 -0.143679,0.638572 -0.127714,0.2873574 -0.351215,0.5108576 -0.2235,0.2075359 -0.526821,0.3352503 -0.287358,0.1277144 -0.622608,0.1277144 z m 2.937414,1.4048579 q 0.271393,-0.07982 0.590679,-0.175607 0.33525,-0.11175 0.734357,-0.191571 0.415072,-0.09579 0.909966,-0.143679 0.510857,-0.06386 1.149429,-0.06386 1.883788,0 2.586217,1.085572 0.702429,1.085572 0.239464,2.96936 l -1.085572,4.533861 h -2.378681 l 1.053644,-4.438075 q 0.09579,-0.415072 0.143679,-0.798215 0.06386,-0.399108 0,-0.686465 -0.06386,-0.303322 -0.303322,-0.478929 -0.2235,-0.191572 -0.702429,-0.191572 -0.462965,0 -0.941894,0.09579 l -1.548537,6.49747 h -2.378681 z m 16.523039,-0.55875 q 0.766286,0 1.325037,0.271393 0.55875,0.271393 0.925929,0.734358 0.367179,0.462965 0.542786,1.085572 0.175608,0.622608 0.175608,1.341002 0,1.101536 -0.415072,2.091323 -0.399108,0.973822 -1.101537,1.70818 -0.702429,0.718393 -1.660287,1.14943 -0.957858,0.415071 -2.075359,0.415071 -0.143679,0 -0.510858,-0.01596 -0.351214,0 -0.814179,-0.06386 -0.462965,-0.06386 -0.989787,-0.191572 -0.510857,-0.127714 -0.973822,-0.351214 L 84.254758,6.6987914 86.729224,6.3156482 85.739438,10.434438 q 0.319286,-0.143679 0.638572,-0.223501 0.319286,-0.07982 0.686465,-0.07982 z m -2.075359,6.83272 q 0.55875,0 1.053644,-0.271393 0.494893,-0.271393 0.846107,-0.718393 0.367179,-0.462965 0.574715,-1.03768 0.207536,-0.574714 0.207536,-1.197322 0,-0.766287 -0.255429,-1.197323 -0.255428,-0.431036 -0.941893,-0.431036 -0.223501,0 -0.590679,0.07982 -0.351215,0.07982 -0.638572,0.33525 l -1.053644,4.374218 q 0.09579,0.01597 0.159643,0.03193 0.07982,0.01596 0.159643,0.03193 0.07982,0 0.191571,0 0.11175,0 0.287358,-1e-6 z m 6.162202,-1.548537 q 0,-1.021715 0.351214,-1.979573 0.367179,-0.957858 1.021716,-1.692216 0.654536,-0.750322 1.580465,-1.197322 0.941894,-0.462965 2.075359,-0.462965 0.558751,0 1.03768,0.159643 0.478929,0.159643 0.830143,0.462965 0.367179,0.303321 0.558751,0.750322 0.207536,0.431036 0.207536,0.989786 0,0.894001 -0.399108,1.516609 -0.399107,0.622608 -1.117501,1.021715 -0.702429,0.383143 -1.676251,0.558751 -0.973822,0.175607 -2.123252,0.175607 0.11175,0.670501 0.478929,0.957858 0.383143,0.271393 1.197322,0.271393 0.510858,0 1.03768,-0.07982 0.526822,-0.09579 0.989787,-0.271393 l 0.175607,1.867823 q -0.447001,0.175607 -1.14943,0.319286 -0.686465,0.143678 -1.500644,0.143678 -0.989787,0 -1.676251,-0.271393 -0.670501,-0.287357 -1.101537,-0.766286 -0.415072,-0.478929 -0.606644,-1.117501 -0.191571,-0.638572 -0.191571,-1.356966 z m 4.645611,-3.448289 q -0.814179,0 -1.436787,0.59068 -0.606643,0.574714 -0.798215,1.532572 0.989787,-0.03193 1.59643,-0.159643 0.606644,-0.143678 0.941894,-0.33525 0.33525,-0.191571 0.447,-0.415072 0.11175,-0.2235 0.11175,-0.447 0,-0.766287 -0.862072,-0.766287 z m 11.206921,3.113039 q -0.2235,0.909965 -0.12772,1.835895 0.0958,0.909965 0.36718,1.628358 l -2.12325,0.303322 q -0.0958,-0.191572 -0.17561,-0.367179 -0.0798,-0.175607 -0.15964,-0.399108 -0.447,0.367179 -0.98979,0.606644 -0.54278,0.239464 -1.21328,0.239464 -0.79822,0 -1.37293,-0.271393 -0.55875,-0.287357 -0.92593,-0.750322 -0.351217,-0.478929 -0.51086,-1.101537 -0.159643,-0.638572 -0.159643,-1.356965 0,-1.101537 0.383144,-2.075359 0.399109,-0.973822 1.085569,-1.692216 0.70243,-0.734358 1.64433,-1.14943 0.94189,-0.415071 2.04343,-0.415071 0.14368,0 0.49489,0.01596 0.36718,0.01596 0.83014,0.07982 0.46297,0.04789 0.97383,0.175608 0.51085,0.127714 0.97382,0.351214 z m -1.66029,-2.937431 q -0.20753,-0.03193 -0.38314,-0.04789 -0.15965,-0.01596 -0.39911,-0.01596 -0.54279,0 -1.02171,0.271393 -0.46297,0.271393 -0.81418,0.718393 -0.35122,0.431036 -0.55875,1.005751 -0.19158,0.574715 -0.19158,1.197323 0,0.766286 0.25543,1.213286 0.25543,0.447001 0.9419,0.447001 0.36718,0 0.65453,-0.143679 0.30332,-0.143679 0.63857,-0.478929 0.0319,-0.399107 0.0958,-0.830143 0.0798,-0.447001 0.15964,-0.81418 z m 3.65581,3.208824 q 0,-1.085572 0.35122,-2.04343 0.35121,-0.957858 1.00575,-1.676252 0.65453,-0.718393 1.58046,-1.133465 0.9419,-0.415072 2.09133,-0.415072 0.71839,0 1.27714,0.143679 0.57471,0.127714 1.03768,0.351214 l -0.81418,1.851859 q -0.31929,-0.127714 -0.6705,-0.2235 -0.33525,-0.11175 -0.83014,-0.11175 -1.19733,0 -1.88379,0.814179 -0.68647,0.798215 -0.68647,2.187109 0,0.81418 0.35122,1.325037 0.35121,0.494894 1.29311,0.494894 0.46296,0 0.894,-0.09579 0.43103,-0.09579 0.76628,-0.239465 l 0.17561,1.899752 q -0.447,0.175607 -0.98979,0.303322 -0.52682,0.143678 -1.2931,0.143678 -0.98979,0 -1.67626,-0.287357 -0.68646,-0.287357 -1.13346,-0.766286 -0.447,-0.494894 -0.65454,-1.14943 -0.19157,-0.654536 -0.19157,-1.37293 z m 12.85126,-5.188397 q 0.68646,0 1.18135,0.207535 0.4949,0.191572 0.81418,0.558751 0.31929,0.351215 0.47893,0.846108 0.15964,0.494893 0.15964,1.069608 0,0.670501 -0.15964,1.325037 l -1.08557,4.533861 h -2.37868 l 1.05364,-4.438075 q 0.0639,-0.271393 0.11175,-0.574715 0.0639,-0.303322 0.0639,-0.574715 0,-0.415072 -0.2235,-0.702429 -0.20754,-0.303322 -0.81418,-0.303322 -0.25543,0 -0.49489,0.03193 -0.2235,0.03193 -0.447,0.07982 l -1.54854,6.481506 h -2.37868 l 2.87357,-12.0051536 2.47447,-0.3831432 -0.97382,4.0070398 q 0.31928,-0.06386 0.63857,-0.111751 0.33525,-0.04789 0.65454,-0.04789 z m 9.11559,0.526821 q 0.27139,-0.07982 0.57472,-0.175607 0.31928,-0.11175 0.70243,-0.191571 0.3991,-0.09579 0.87803,-0.143679 0.4949,-0.06386 1.13347,-0.06386 0.76628,0 1.26118,0.191571 0.51085,0.191572 0.92593,0.574715 0.59068,-0.33525 1.16539,-0.542786 0.59068,-0.2235 1.37293,-0.2235 0.75032,0 1.27714,0.207536 0.54279,0.191571 0.894,0.574714 0.35122,0.367179 0.51086,0.894001 0.15965,0.510858 0.15965,1.133466 0,0.287357 -0.0479,0.606643 -0.0319,0.319286 -0.11175,0.638572 l -1.08557,4.533861 h -2.37868 l 1.05364,-4.438075 q 0.0479,-0.2235 0.0958,-0.494894 0.0639,-0.287357 0.0639,-0.55875 0,-0.447 -0.20754,-0.766287 -0.20754,-0.33525 -0.81418,-0.33525 -0.33525,0 -0.63857,0.127715 -0.30332,0.11175 -0.54279,0.239464 0.0319,0.127715 0.0319,0.239465 0,0.11175 0,0.207536 0,0.287357 -0.0479,0.606643 -0.0319,0.319286 -0.11175,0.638572 l -1.08557,4.533861 h -2.37868 l 1.05364,-4.438075 q 0.0479,-0.2235 0.0958,-0.494894 0.0639,-0.287357 0.0639,-0.55875 0,-0.447 -0.20753,-0.766287 -0.20754,-0.33525 -0.81418,-0.33525 -0.25543,0 -0.43104,0.03193 -0.17561,0.01596 -0.41507,0.06386 l -1.54854,6.49747 h -2.37868 z m 12.05303,4.725433 q 0,-1.021715 0.35121,-1.979573 0.36718,-0.957858 1.02172,-1.692216 0.65453,-0.750322 1.58046,-1.197322 0.94189,-0.462965 2.07536,-0.462965 0.55875,0 1.03768,0.159643 0.47893,0.159643 0.83014,0.462965 0.36718,0.303321 0.55875,0.750322 0.20754,0.431036 0.20754,0.989786 0,0.894001 -0.39911,1.516609 -0.39911,0.622608 -1.1175,1.021715 -0.70243,0.383143 -1.67625,0.558751 -0.97382,0.175607 -2.12325,0.175607 0.11175,0.670501 0.47893,0.957858 0.38314,0.271393 1.19732,0.271393 0.51086,0 1.03768,-0.07982 0.52682,-0.09579 0.98979,-0.271393 l 0.1756,1.867823 q -0.447,0.175607 -1.14943,0.319286 -0.68646,0.143678 -1.50064,0.143678 -0.98979,0 -1.67625,-0.271393 -0.6705,-0.287357 -1.10154,-0.766286 -0.41507,-0.478929 -0.60664,-1.117501 -0.19157,-0.638572 -0.19157,-1.356966 z m 4.64561,-3.448289 q -0.81418,0 -1.43679,0.59068 -0.60664,0.574714 -0.79822,1.532572 0.98979,-0.03193 1.59643,-0.159643 0.60665,-0.143678 0.9419,-0.33525 0.33525,-0.191571 0.447,-0.415072 0.11175,-0.2235 0.11175,-0.447 0,-0.766287 -0.86207,-0.766287 z m 3.81544,3.448289 q 0,-1.021715 0.35122,-1.979573 0.36718,-0.957858 1.02171,-1.692216 0.65454,-0.750322 1.58047,-1.197322 0.94189,-0.462965 2.07536,-0.462965 0.55875,0 1.03768,0.159643 0.47893,0.159643 0.83014,0.462965 0.36718,0.303321 0.55875,0.750322 0.20754,0.431036 0.20754,0.989786 0,0.894001 -0.39911,1.516609 -0.39911,0.622608 -1.1175,1.021715 -0.70243,0.383143 -1.67625,0.558751 -0.97382,0.175607 -2.12325,0.175607 0.11175,0.670501 0.47893,0.957858 0.38314,0.271393 1.19732,0.271393 0.51086,0 1.03768,-0.07982 0.52682,-0.09579 0.98978,-0.271393 l 0.17561,1.867823 q -0.447,0.175607 -1.14943,0.319286 -0.68646,0.143678 -1.50064,0.143678 -0.98979,0 -1.67625,-0.271393 -0.6705,-0.287357 -1.10154,-0.766286 -0.41507,-0.478929 -0.60664,-1.117501 -0.19158,-0.638572 -0.19158,-1.356966 z m 4.64562,-3.448289 q -0.81418,0 -1.43679,0.59068 -0.60664,0.574714 -0.79822,1.532572 0.98979,-0.03193 1.59643,-0.159643 0.60665,-0.143678 0.9419,-0.33525 0.33525,-0.191571 0.447,-0.415072 0.11175,-0.2235 0.11175,-0.447 0,-0.766287 -0.86207,-0.766287 z m 5.61941,-3.75161 2.47447,-0.3831432 -0.60665,2.4744662 h 2.65008 l -0.47893,1.947645 h -2.63411 l -0.70243,2.937431 q -0.0958,0.367179 -0.12771,0.686465 -0.016,0.319286 0.0798,0.558751 0.11175,0.2235 0.36718,0.351214 0.25542,0.127715 0.70242,0.127715 0.38315,0 0.73436,-0.06386 0.36718,-0.07982 0.73436,-0.207536 l 0.17561,1.819931 q -0.47893,0.175607 -1.03768,0.303321 -0.55875,0.127715 -1.32504,0.127715 -1.10154,0 -1.70818,-0.319286 -0.60664,-0.335251 -0.86207,-0.894001 -0.25543,-0.574715 -0.2235,-1.309073 0.0319,-0.734357 0.2235,-1.548537 z m 13.15456,2.091323 -1.13346,4.773326 q -0.2235,0.909965 -0.12772,1.835895 0.0958,0.909965 0.36718,1.628358 l -2.12325,0.303322 q -0.17561,-0.351215 -0.33525,-0.782251 -0.447,0.351215 -1.00575,0.590679 -0.55875,0.239465 -1.24522,0.239465 -0.94189,0 -1.53257,-0.335251 -0.57471,-0.351214 -0.86207,-0.909965 -0.28736,-0.574714 -0.31929,-1.309072 -0.016,-0.734358 0.17561,-1.500644 l 1.08557,-4.533862 h 2.37868 l -1.0696,4.501933 q -0.0798,0.351215 -0.14368,0.718393 -0.0479,0.367179 0,0.686465 0.0479,0.303322 0.23946,0.510858 0.20754,0.191572 0.63857,0.191572 0.36718,0 0.6705,-0.127715 0.31929,-0.143679 0.6705,-0.478929 0.0319,-0.399107 0.0958,-0.830143 0.0798,-0.447001 0.15964,-0.81418 l 1.03768,-4.358254 z m 3.27266,6.545363 q 0.2714,0.06386 0.67051,0.06386 0.6226,0 1.13346,-0.223501 0.51086,-0.239464 0.86207,-0.654536 0.36718,-0.415072 0.55875,-0.989787 0.20754,-0.590679 0.20754,-1.293108 0,-0.686465 -0.30332,-1.165394 -0.30332,-0.478929 -1.05365,-0.478929 -0.51085,0 -0.95785,0.09579 z m 5.79505,-3.272681 q 0,1.165394 -0.38315,2.139216 -0.38314,0.957858 -1.06961,1.660287 -0.6705,0.702429 -1.62835,1.101537 -0.9419,0.383143 -2.0594,0.383143 -0.54279,0 -1.08557,-0.09579 l -0.7184,2.889539 h -2.36271 l 2.65007,-11.047296 q 0.63857,-0.191572 1.45275,-0.33525 0.83015,-0.159643 1.78801,-0.159643 0.894,0 1.53257,0.271393 0.65453,0.271393 1.06961,0.750322 0.41507,0.462965 0.60664,1.101537 0.20754,0.622607 0.20754,1.341001 z"
       aria-label="bitcoin beach meetup" />
    <path
       d="m 57.640565,21.314452 -0.103768,0.423055 h -0.822163 l -0.562742,2.342764 h -0.502876 l 0.562742,-2.342764 h -0.822162 l 0.09978,-0.423055 z m 8.00465,-0.02794 q 0.494894,0 0.750323,0.207536 0.25942,0.203545 0.25942,0.542787 0,0.151661 -0.0439,0.291349 -0.03991,0.135696 -0.131705,0.255429 -0.0878,0.115741 -0.231483,0.207536 -0.139688,0.0918 -0.339242,0.151661 0.05188,0.09179 0.11175,0.2235 0.05987,0.127715 0.123724,0.279376 0.06386,0.14767 0.123723,0.311304 0.05987,0.163635 0.10776,0.323278 h -0.530814 q -0.04789,-0.143679 -0.09978,-0.291349 -0.05188,-0.14767 -0.107759,-0.283367 -0.05588,-0.139688 -0.115742,-0.25942 -0.05588,-0.123723 -0.11175,-0.219509 -0.03592,0.004 -0.0878,0.004 -0.05188,0 -0.09179,0 h -0.23149 l -0.251438,1.049654 h -0.502876 l 0.650546,-2.725908 q 0.191572,-0.03991 0.387135,-0.05188 0.199554,-0.01596 0.363188,-0.01596 z M 66.1441,22.09271 q 0,-0.219509 -0.159643,-0.299331 -0.159643,-0.08381 -0.427046,-0.08381 -0.05588,0 -0.119732,0.004 -0.06386,0.004 -0.127715,0.01197 l -0.215518,0.901984 h 0.2235 q 0.179599,0 0.33126,-0.02794 0.151661,-0.03193 0.25942,-0.09579 0.11175,-0.06386 0.171617,-0.163634 0.06386,-0.103768 0.06386,-0.247447 z m 9.35762,1.987558 q -0.01197,-0.167626 -0.02794,-0.33126 -0.01197,-0.167625 -0.02794,-0.323277 h -1.121493 q -0.0918,0.155652 -0.18359,0.319286 -0.0878,0.159643 -0.179598,0.335251 h -0.538796 q 0.243456,-0.423055 0.462965,-0.798216 0.2235,-0.375162 0.431037,-0.714404 0.211527,-0.339241 0.415072,-0.646555 0.207536,-0.311304 0.415072,-0.606644 h 0.466957 q 0.127714,0.594671 0.219509,1.301092 0.09179,0.70243 0.175608,1.464727 z m -0.231482,-2.238996 q -0.151661,0.235474 -0.339242,0.530814 -0.18359,0.291348 -0.391126,0.654537 h 0.866065 q -0.02395,-0.283367 -0.05987,-0.578707 -0.03193,-0.299331 -0.07583,-0.606644 z m 8.906627,2.238996 h -0.47893 Q 83.574212,23.437707 83.478426,22.74725 83.38264,22.056793 83.314792,21.314452 h 0.530813 q 0.0439,0.586689 0.09579,1.14544 0.05588,0.558751 0.123724,1.025708 0.14767,-0.223501 0.303322,-0.486912 0.159643,-0.263411 0.319286,-0.542787 0.159643,-0.283366 0.311304,-0.570724 0.151661,-0.291349 0.287358,-0.570725 h 0.546778 q -0.375161,0.706421 -0.782252,1.40486 -0.403099,0.694448 -0.874046,1.360959 z m 8.228155,0 0.662519,-2.765819 h 1.716165 l -0.09978,0.419064 h -1.21728 l -0.163634,0.694448 h 1.077592 l -0.09978,0.411081 h -1.073601 l -0.199554,0.822162 h 1.309074 l -0.09978,0.419064 z m 10.43123,-2.765819 q 0.0359,0.139688 0.0798,0.363189 0.0479,0.219509 0.0918,0.470947 0.0479,0.251438 0.0918,0.506867 0.0479,0.255429 0.0838,0.462965 0.1357,-0.211527 0.29933,-0.462965 0.16763,-0.251438 0.33126,-0.498885 0.16763,-0.247447 0.31929,-0.466956 0.15565,-0.223501 0.2674,-0.375162 h 0.47494 q -0.0319,0.303322 -0.0758,0.646555 -0.0439,0.343233 -0.10377,0.70243 -0.0559,0.359198 -0.11973,0.722386 -0.0639,0.359197 -0.12772,0.694448 h -0.49888 q 0.10377,-0.482921 0.19955,-0.989788 0.0958,-0.510858 0.17561,-1.009743 -0.0679,0.09579 -0.15565,0.231482 -0.0878,0.135697 -0.18758,0.287358 -0.0998,0.14767 -0.20355,0.307313 -0.10377,0.159643 -0.20354,0.311304 -0.0958,0.14767 -0.1796,0.275385 -0.0838,0.127715 -0.14368,0.219509 h -0.38714 q -0.02,-0.131705 -0.0559,-0.347224 -0.0359,-0.215518 -0.0798,-0.450992 -0.0439,-0.239464 -0.0878,-0.462965 -0.0399,-0.227491 -0.0718,-0.375161 -0.16363,0.498885 -0.30731,1.013734 -0.13969,0.510858 -0.2674,0.989788 h -0.49489 q 0.0958,-0.343233 0.20354,-0.710412 0.10776,-0.36718 0.21951,-0.726377 0.11574,-0.363188 0.22749,-0.70243 0.11175,-0.339242 0.21552,-0.6266 z m 11.37312,1.748093 q -0.0599,0.255429 -0.15166,0.454983 -0.0918,0.199554 -0.23947,0.339242 -0.14368,0.135697 -0.3552,0.211528 -0.20754,0.07184 -0.50288,0.07184 -0.23148,0 -0.39911,-0.05987 -0.16363,-0.06386 -0.2674,-0.171617 -0.10377,-0.107759 -0.15565,-0.255429 -0.0479,-0.151661 -0.0479,-0.327268 0,-0.09179 0.012,-0.203545 0.016,-0.111751 0.0439,-0.215519 l 0.37915,-1.592441 h 0.50687 l -0.39512,1.648316 q -0.02,0.07583 -0.0319,0.159644 -0.012,0.07982 -0.012,0.155652 0,0.0878 0.02,0.167625 0.0239,0.07583 0.0758,0.131706 0.0519,0.05588 0.13569,0.0918 0.0838,0.03193 0.20754,0.03193 0.29135,0 0.447,-0.171616 0.15565,-0.171617 0.23548,-0.51485 l 0.40709,-1.7002 h 0.50686 z m -0.15166,-2.043433 q -0.10377,0 -0.17162,-0.06386 -0.0678,-0.06386 -0.0678,-0.167625 0,-0.06785 0.0239,-0.123724 0.0279,-0.05987 0.0678,-0.09978 0.0399,-0.03991 0.0918,-0.05987 0.0519,-0.02395 0.10377,-0.02395 0.10377,0 0.17162,0.06785 0.0718,0.06386 0.0718,0.175607 0,0.06386 -0.0279,0.119733 -0.0239,0.05188 -0.0678,0.0918 -0.0399,0.03991 -0.0918,0.06386 -0.0519,0.01995 -0.10377,0.01995 z m -0.82216,0 q -0.10377,0 -0.17162,-0.06386 -0.0678,-0.06386 -0.0678,-0.167625 0,-0.06785 0.0239,-0.123724 0.0279,-0.05987 0.0678,-0.09978 0.0399,-0.03991 0.0918,-0.05987 0.0519,-0.02395 0.10377,-0.02395 0.10377,0 0.17162,0.06785 0.0718,0.06386 0.0718,0.175607 0,0.06386 -0.0279,0.119733 -0.0239,0.05188 -0.0678,0.0918 -0.0399,0.03991 -0.0918,0.06386 -0.0519,0.01995 -0.10376,0.01995 z m 10.05606,3.061159 q -0.0758,-0.231483 -0.17561,-0.498885 -0.0958,-0.267403 -0.20753,-0.534805 -0.10776,-0.267402 -0.22749,-0.51884 -0.11575,-0.255429 -0.23548,-0.466957 l -0.48292,2.019487 h -0.49489 l 0.66252,-2.765819 h 0.4031 q 0.11175,0.179599 0.23148,0.411082 0.12372,0.231482 0.23946,0.486911 0.11574,0.251438 0.2235,0.506867 0.10776,0.25543 0.18758,0.482921 l 0.44301,-1.887781 h 0.49889 l -0.66252,2.765819 z m 8.52749,-0.411081 q 0.0439,0.008 0.0998,0.01197 0.0599,0 0.18359,0 0.28736,0 0.51884,-0.0918 0.23149,-0.0918 0.39113,-0.25942 0.16363,-0.171617 0.25144,-0.40709 0.0878,-0.239465 0.0878,-0.530814 0,-0.315295 -0.1796,-0.498885 -0.1796,-0.18359 -0.58669,-0.18359 -0.10376,0 -0.16762,0.004 -0.0599,0.004 -0.13171,0.01197 z m 2.05141,-1.29311 q 0,0.37117 -0.11973,0.690456 -0.11973,0.319287 -0.35521,0.550769 -0.23547,0.231483 -0.59068,0.363189 -0.35121,0.131705 -0.81817,0.131705 -0.16762,0 -0.37516,-0.01995 -0.20754,-0.01596 -0.38314,-0.05588 l 0.64256,-2.678015 q 0.19556,-0.0439 0.39512,-0.05587 0.19955,-0.01596 0.36718,-0.01596 0.30332,0 0.5348,0.07982 0.23148,0.07583 0.38714,0.21951 0.15565,0.139688 0.23547,0.343233 0.0798,0.199554 0.0798,0.447001 z m 7.02683,1.704191 0.66252,-2.765819 h 1.71617 l -0.0998,0.419064 h -1.21728 l -0.16363,0.694448 h 1.07759 l -0.0998,0.411081 h -1.0736 L 141.5,23.661207 h 1.30907 l -0.0998,0.419064 z"
       fill="#ffffff"
       aria-label="TRAVEMÜNDE" />
    <g
       id="g2898"
       transform="matrix(0.35240222,0,0,0.35240222,-99.886843,-109.8503)"
       style="display:inline">
      <path
         d="m 352.64,357.25 c -4.274,17.143 -21.637,27.576 -38.782,23.301 -17.138,-4.274 -27.571,-21.638 -23.295,-38.78 4.272,-17.145 21.635,-27.579 38.775,-23.305 17.144,4.274 27.576,21.64 23.302,38.784 z"
         fill="#f7931a"
         id="path2668" />
      <path
         d="m 335.71,344.95 c 0.637,-4.258 -2.605,-6.547 -7.038,-8.074 l 1.438,-5.768 -3.511,-0.875 -1.4,5.616 c -0.923,-0.23 -1.871,-0.447 -2.813,-0.662 l 1.41,-5.653 -3.509,-0.875 -1.439,5.766 c -0.764,-0.174 -1.514,-0.346 -2.242,-0.527 l 0.004,-0.018 -4.842,-1.209 -0.934,3.75 c 0,0 2.605,0.597 2.55,0.634 1.422,0.355 1.679,1.296 1.636,2.042 l -1.638,6.571 c 0.098,0.025 0.225,0.061 0.365,0.117 -0.117,-0.029 -0.242,-0.061 -0.371,-0.092 l -2.296,9.205 c -0.174,0.432 -0.615,1.08 -1.609,0.834 0.035,0.051 -2.552,-0.637 -2.552,-0.637 l -1.743,4.019 4.569,1.139 c 0.85,0.213 1.683,0.436 2.503,0.646 l -1.453,5.834 3.507,0.875 1.439,-5.772 c 0.958,0.26 1.888,0.5 2.798,0.726 l -1.434,5.745 3.511,0.875 1.453,-5.823 c 5.987,1.133 10.489,0.676 12.384,-4.739 1.527,-4.36 -0.076,-6.875 -3.226,-8.515 2.294,-0.529 4.022,-2.038 4.483,-5.155 z m -8.022,11.249 c -1.085,4.36 -8.426,2.003 -10.806,1.412 l 1.928,-7.729 c 2.38,0.594 10.012,1.77 8.878,6.317 z m 1.086,-11.312 c -0.99,3.966 -7.1,1.951 -9.082,1.457 l 1.748,-7.01 c 1.982,0.494 8.365,1.416 7.334,5.553 z"
         fill="#ffffff"
         id="path2670" />
    </g>
  </g>
</svg>
