<?xml version="1.0" encoding="UTF-8" standalone="no"?>
<!-- Created with Inkscape (http://www.inkscape.org/) -->

<svg
   width="183.96761mm"
   height="27mm"
   viewBox="0 0 183.96761 27"
   version="1.1"
   id="svg7864"
   xmlns="http://www.w3.org/2000/svg"
   xmlns:svg="http://www.w3.org/2000/svg">
  <defs
     id="defs7861" />
  <g
     id="layer1">
    <rect
       style="fill:#000000;stroke-width:0.330411"
       id="rect8499"
       width="190.25929"
       height="27"
       x="0"
       y="0" />
    <text
       xml:space="preserve"
       style="font-size:15.9643px;display:inline;fill:#ffffff;stroke-width:0.187083"
       x="26.448175"
       y="18.703945"
       id="text79"><tspan
         id="tspan77"
         x="26.448175"
         y="18.703945"
         style="font-style:italic;font-variant:normal;font-weight:bold;font-stretch:normal;font-size:15.9643px;font-family:Ubuntu;-inkscape-font-specification:'Ubuntu, Bold Italic';font-variant-ligatures:normal;font-variant-caps:normal;font-variant-numeric:normal;font-variant-east-asian:normal;fill:#ffffff;fill-opacity:1;stroke-width:0.187083">bitcoin beach meetup</tspan></text>
    <text
       xml:space="preserve"
       style="font-style:italic;font-variant:normal;font-weight:500;font-stretch:normal;font-size:3.99108px;font-family:Ubuntu;-inkscape-font-specification:'Ubuntu, Medium Italic';font-variant-ligatures:normal;font-variant-caps:normal;font-variant-numeric:normal;font-variant-east-asian:normal;letter-spacing:6.87917px;word-spacing:0px;display:inline;fill:#ffffff;fill-opacity:1;stroke-width:0.187083"
       x="54.731068"
       y="24.080271"
       id="text205"><tspan
         id="tspan203"
         x="54.731068"
         y="24.080271"
         style="letter-spacing:6.87917px;fill:#ffffff;stroke-width:0.187083">TRAVEMÜNDE</tspan></text>
    <g
       id="g2898"
       transform="matrix(0.35240222,0,0,0.35240222,-99.886843,-109.8503)"
       style="display:inline">
      <path
         d="m 352.64,357.25 c -4.274,17.143 -21.637,27.576 -38.782,23.301 -17.138,-4.274 -27.571,-21.638 -23.295,-38.78 4.272,-17.145 21.635,-27.579 38.775,-23.305 17.144,4.274 27.576,21.64 23.302,38.784 z"
         fill="#f7931a"
         id="path2668" />
      <path
         d="m 335.71,344.95 c 0.637,-4.258 -2.605,-6.547 -7.038,-8.074 l 1.438,-5.768 -3.511,-0.875 -1.4,5.616 c -0.923,-0.23 -1.871,-0.447 -2.813,-0.662 l 1.41,-5.653 -3.509,-0.875 -1.439,5.766 c -0.764,-0.174 -1.514,-0.346 -2.242,-0.527 l 0.004,-0.018 -4.842,-1.209 -0.934,3.75 c 0,0 2.605,0.597 2.55,0.634 1.422,0.355 1.679,1.296 1.636,2.042 l -1.638,6.571 c 0.098,0.025 0.225,0.061 0.365,0.117 -0.117,-0.029 -0.242,-0.061 -0.371,-0.092 l -2.296,9.205 c -0.174,0.432 -0.615,1.08 -1.609,0.834 0.035,0.051 -2.552,-0.637 -2.552,-0.637 l -1.743,4.019 4.569,1.139 c 0.85,0.213 1.683,0.436 2.503,0.646 l -1.453,5.834 3.507,0.875 1.439,-5.772 c 0.958,0.26 1.888,0.5 2.798,0.726 l -1.434,5.745 3.511,0.875 1.453,-5.823 c 5.987,1.133 10.489,0.676 12.384,-4.739 1.527,-4.36 -0.076,-6.875 -3.226,-8.515 2.294,-0.529 4.022,-2.038 4.483,-5.155 z m -8.022,11.249 c -1.085,4.36 -8.426,2.003 -10.806,1.412 l 1.928,-7.729 c 2.38,0.594 10.012,1.77 8.878,6.317 z m 1.086,-11.312 c -0.99,3.966 -7.1,1.951 -9.082,1.457 l 1.748,-7.01 c 1.982,0.494 8.365,1.416 7.334,5.553 z"
         fill="#ffffff"
         id="path2670" />
    </g>
  </g>
</svg>
