<?xml version="1.0" encoding="UTF-8" standalone="no"?>
<svg
   width="23"
   height="21"
   viewBox="0 0 184 152"
   xmlns="http://www.w3.org/2000/svg"
   xmlns:svg="http://www.w3.org/2000/svg">
  <path
     fill="#999"
     d="m 1.1664006,22.809999 a 4,4 0 0 1 0,-5.64 C 1.8764006,16.469999 18.726401,-6.8225098e-8 52.006401,-6.8225098e-8 69.216401,-6.8225098e-8 81.926398,8.4799986 94.226398,16.669999 c 11.780002,7.88 22.990002,15.33 37.780002,15.33 29.77,0 45,-14.69 45.18,-14.84 a 4.0022306,4.0022306 0 0 1 5.65,5.67 c -0.7,0.7 -17.55,17.17 -50.83,17.17 -17.21,0 -29.92,-8.48 -42.220002,-16.67 -11.78,-7.88 -22.989997,-15.3300004 -37.779997,-15.3300004 -29.77,0 -45.0000004,14.6900004 -45.1800004,14.8400004 a 4,4 0 0 1 -5.66,-0.03 z m 175.9999994,50.35 c -0.16,0.15 -15.39,14.840001 -45.16,14.840001 -14.79,0 -26,-7.450001 -37.780002,-15.330001 -12.3,-8.19 -25.009997,-16.67 -42.219997,-16.67 -33.28,0 -50.1300004,16.47 -50.8300004,17.17 a 4.0022308,4.0022308 0 0 0 5.65,5.67 c 0.18,-0.15 15.4100004,-14.84 45.1800004,-14.84 14.79,0 25.999997,7.45 37.779997,15.33 C 102.0864,87.52 114.7864,96.000012 132.0064,96.000012 c 33.28,0 50.13,-16.470013 50.83,-17.170013 a 4.0022306,4.0022306 0 0 0 -5.65,-5.67 z m 0,56.000011 c -0.16,0.15 -15.39,14.84 -45.16,14.84 -14.79,0 -26,-7.45 -37.780002,-15.33 -12.3,-8.19 -25.009997,-16.67 -42.219997,-16.67 -33.28,0 -50.1300004,16.47 -50.8300004,17.17 a 4.0022308,4.0022308 0 0 0 5.65,5.67 c 0.18,-0.15 15.4100004,-14.84 45.1800004,-14.84 14.79,0 25.999997,7.45 37.779997,15.33 12.300002,8.19 25.000002,16.67 42.220002,16.67 33.28,0 50.13,-16.47 50.83,-17.17 a 4.0022306,4.0022306 0 0 0 -5.65,-5.67 z"
      />
</svg>
